<?xml version="1.0" encoding="utf-8"?>
<!-- Generator: Adobe Illustrator 25.2.1, SVG Export Plug-In . SVG Version: 6.00 Build 0)  -->
<svg version="1.1" id="Layer_1" xmlns="http://www.w3.org/2000/svg" xmlns:xlink="http://www.w3.org/1999/xlink" x="0px" y="0px"
	 viewBox="0 0 35 29" style="enable-background:new 0 0 35 29;" xml:space="preserve">
<style type="text/css">
	.st0{fill:none;stroke:#FFFFFF;stroke-width:2;stroke-linecap:round;stroke-linejoin:round;}
</style>
<path class="st0" d="M23.3,22.8c0,1.7,2.5,5,3.3,5c2.5,0,4.7-2.8,5.8-5c1.1-2.8,0.8-9.7-2.5-19.2c-2.4-1.7-5-2.2-7.5-2.5l-1.6,3.2
	c-2.2-0.4-4.5-0.4-6.8,0l-1.6-3.2C10,1.4,7.4,2,5,3.7c-3.3,9.4-3.6,16.4-2.5,19.2c1.1,2.2,3.3,5,5.8,5c0.8,0,3.3-3.3,3.3-5 M9.2,22
	c5.8,1.7,10.8,1.7,16.7,0 M10.8,14.5c0,0.4,0.2,0.9,0.5,1.2c0.3,0.3,0.7,0.5,1.2,0.5c0.4,0,0.9-0.2,1.2-0.5c0.3-0.3,0.5-0.7,0.5-1.2
	s-0.2-0.9-0.5-1.2c-0.3-0.3-0.7-0.5-1.2-0.5c-0.4,0-0.9,0.2-1.2,0.5C11,13.6,10.8,14.1,10.8,14.5z M20.8,14.5c0,0.4,0.2,0.9,0.5,1.2
	c0.3,0.3,0.7,0.5,1.2,0.5c0.4,0,0.9-0.2,1.2-0.5c0.3-0.3,0.5-0.7,0.5-1.2s-0.2-0.9-0.5-1.2c-0.3-0.3-0.7-0.5-1.2-0.5
	c-0.4,0-0.9,0.2-1.2,0.5C21,13.6,20.8,14.1,20.8,14.5z"/>
</svg>
