<svg width="33" height="29" viewBox="0 0 33 29" fill="none" xmlns="http://www.w3.org/2000/svg">
<path d="M21.5 7.83333C22.535 8.60955 23.375 9.61609 23.9536 10.7732C24.5321 11.9303 24.8333 13.2063 24.8333 14.5C24.8333 15.7937 24.5321 17.0696 23.9536 18.2268C23.375 19.3839 22.535 20.3904 21.5 21.1667M25.9999 2.83333C27.7399 4.23941 29.1433 6.01687 30.1074 8.03553C31.0715 10.0542 31.5718 12.2629 31.5718 14.5C31.5718 16.7371 31.0715 18.9458 30.1074 20.9645C29.1433 22.9831 27.7399 24.7606 25.9999 26.1667M6.5 19.5H3.16667C2.72464 19.5 2.30072 19.3244 1.98816 19.0118C1.67559 18.6993 1.5 18.2754 1.5 17.8333V11.1667C1.5 10.7246 1.67559 10.3007 1.98816 9.98815C2.30072 9.67559 2.72464 9.5 3.16667 9.5H6.5L12.3333 2C12.479 1.71705 12.7211 1.49553 13.0158 1.37548C13.3106 1.25543 13.6385 1.24476 13.9404 1.3454C14.2423 1.44604 14.4983 1.65135 14.6621 1.92423C14.8258 2.19711 14.8866 2.51957 14.8333 2.83333V26.1667C14.8866 26.4804 14.8258 26.8029 14.6621 27.0758C14.4983 27.3486 14.2423 27.554 13.9404 27.6546C13.6385 27.7552 13.3106 27.7446 13.0158 27.6245C12.7211 27.5045 12.479 27.2829 12.3333 27L6.5 19.5Z" stroke="#434D65" stroke-width="2" stroke-linecap="round" stroke-linejoin="round"/>
</svg>
